# xmcd
#
# Track frame offsets:
#	150
#	17618
#	37576
#	51282
#	65887
#	79811
#	97504
#	115691
#	135091
#	153474
#	170426
#	191585
#	210344
#	225263
#	247441
#	269689
#	288957
#	311005
#	328093
# Disc length: 4378 seconds
# Revision: 1
# Processed by: cddbd v1.5.1PL2 Copyright (c) Steve Scherf et al.
#
# Submitted via: libkcddb 0.10
#
DISCID=fb111813
DTITLE=sawyer brown - misc
DYEAR=1900
DGENRE=
TTITLE0=misc
TTITLE1=
TTITLE2=
TTITLE3=
TTITLE4=
TTITLE5=
TTITLE6=
TTITLE7=
TTITLE8=
TTITLE9=
TTITLE10=
TTITLE11=
TTITLE12=
TTITLE13=
TTITLE14=
TTITLE15=
TTITLE16=
TTITLE17=
TTITLE18=
EXTD=
EXTT0=
EXTT1=
EXTT2=
EXTT3=
EXTT4=
EXTT5=
EXTT6=
EXTT7=
EXTT8=
EXTT9=
EXTT10=
EXTT11=
EXTT12=
EXTT13=
EXTT14=
EXTT15=
EXTT16=
EXTT17=
EXTT18=
PLAYORDER=
